<svg width="80" height="80" viewBox="0 0 80 80" fill="none" xmlns="http://www.w3.org/2000/svg">
<rect width="80" height="80" rx="17" fill="url(#paint0_linear_4731_44782)"/>
<path d="M38.8509 46.2027C34.9449 47.9592 30.878 49.3216 26.709 50.2701L25.4636 61.3354L40.9057 54.6407L56.2855 61.3354C55.0402 47.428 51.3042 39.7354 51.3042 39.7354C51.3042 39.7354 45.2519 43.108 38.8509 46.2027Z" fill="white"/>
<path d="M21.1188 43.4348C20.521 42.399 23.7838 39.2664 23.9332 39.1401C23.7464 39.279 16.4612 44.6222 18.2794 47.7548C18.6655 48.4369 19.5995 48.7906 21.044 48.7906C26.2495 48.7906 37.3703 44.319 48.7153 37.6748C59.3379 31.4474 71.4675 19.7758 71.5795 19.6621C71.5048 19.6621 58.9768 26.6095 55.3903 28.719C40.4463 37.4853 26.4986 43.8769 22.3143 43.8769C21.6792 43.8643 21.2807 43.7127 21.1188 43.4348Z" fill="white"/>
<path d="M37.7061 35.0098C43.1607 32.2435 47.8182 29.4393 47.8182 29.4393C47.8182 29.4393 41.0187 13.4603 40.9066 13.334L32.3138 27.8856L16 31.6751L25.9626 40.5172C27.6438 39.9235 32.2391 37.7762 37.7061 35.0098Z" fill="white"/>
<defs>
<linearGradient id="paint0_linear_4731_44782" x1="0" y1="40" x2="80" y2="40" gradientUnits="userSpaceOnUse">
<stop stop-color="#17A562"/>
<stop offset="1" stop-color="#00CDAC"/>
</linearGradient>
</defs>
</svg>