<svg width="187" height="50" viewBox="0 0 187 50" fill="none" xmlns="http://www.w3.org/2000/svg">
<path d="M55.5322 46.8996V41.1582H56.4573V46.1082H59.4159V46.8996H55.5322Z" fill="#496362"/>
<path d="M62.0189 46.8996V41.1582H65.8393V41.9496H62.944V43.5871H65.4759V44.3703H62.944V46.1082H65.8793V46.8996H62.0189Z" fill="#496362"/>
<path d="M68.1972 46.8996L70.2386 41.1582H71.4252L73.4736 46.8996H72.5006L72.0502 45.6117H69.6216L69.1707 46.8996H68.1972ZM69.898 44.8043H71.7733L70.8398 42.1276L69.898 44.8043Z" fill="#496362"/>
<path d="M75.8943 46.8996V41.1582H78.0697C78.4859 41.1582 78.8379 41.2375 79.1254 41.3948C79.4128 41.5526 79.6303 41.7599 79.778 42.0155C79.9257 42.2711 79.9995 42.5496 79.9995 42.8496C79.9995 43.2121 79.8953 43.5405 79.687 43.8349C79.4783 44.1302 79.1741 44.3367 78.7733 44.4556L80.1814 46.8996H79.1451L77.8166 44.5565H76.8194V46.8996H75.8943ZM78.0539 41.9492H76.8194V43.7957H78.0539C78.3862 43.7957 78.6362 43.7013 78.8054 43.5125C78.9742 43.3237 79.0586 43.1104 79.0586 42.8729C79.0586 42.6354 78.9742 42.4216 78.8054 42.2328C78.6367 42.044 78.3862 41.9492 78.0539 41.9492Z" fill="#496362"/>
<path d="M82.8004 46.8996V41.1582H83.6389L86.51 45.2858V41.1582H87.4356V46.8996H86.5891L83.7176 42.8108V46.8996H82.8004Z" fill="#496362"/>
<path d="M96.7869 46.8996V41.1582H98.013L99.6031 44.4246L101.217 41.1582H102.427V46.8996H101.517V42.5078L100.038 45.472H99.1759L97.697 42.4927V46.8996H96.7869Z" fill="#496362"/>
<path d="M104.847 46.8996L106.889 41.1582H108.075L110.124 46.8996H109.151L108.7 45.6117H106.272L105.821 46.8996H104.847ZM106.548 44.8043H108.423L107.49 42.1276L106.548 44.8043Z" fill="#496362"/>
<path d="M113.359 46.8995V41.9491H111.54V41.1577H116.096V41.9491H114.277V46.8991H113.359V46.8995Z" fill="#496362"/>
<path d="M118.541 46.8996V41.1582H119.466V43.5789H122.085V41.1582H123.01V46.8996H122.085V44.3858H119.466V46.8996H118.541Z" fill="#496362"/>
<path d="M133.919 46.8995V41.9491H132.1V41.1577H136.656V41.9491H134.836V46.8991H133.919V46.8995Z" fill="#496362"/>
<path d="M141.276 46.9766C140.807 46.9766 140.393 46.893 140.035 46.7245C139.676 46.5564 139.375 46.3318 139.132 46.0499C138.89 45.768 138.708 45.4512 138.587 45.0995C138.466 44.7477 138.405 44.3883 138.405 44.021C138.405 43.6534 138.466 43.2952 138.587 42.9465C138.708 42.5969 138.89 42.2831 139.132 42.0034C139.375 41.7245 139.676 41.5003 140.035 41.3322C140.393 41.1641 140.807 41.0801 141.276 41.0801C141.751 41.0801 142.167 41.1641 142.526 41.3322C142.885 41.5003 143.186 41.724 143.428 42.0034C143.671 42.2827 143.853 42.5969 143.974 42.9465C144.095 43.2956 144.156 43.6538 144.156 44.021C144.156 44.3883 144.095 44.7477 143.974 45.0995C143.853 45.4512 143.671 45.768 143.428 46.0499C143.186 46.3318 142.885 46.5568 142.526 46.7245C142.167 46.893 141.751 46.9766 141.276 46.9766ZM141.276 46.1469C141.698 46.1469 142.052 46.0452 142.336 45.8404C142.621 45.6361 142.838 45.3723 142.985 45.049C143.133 44.7258 143.207 44.3831 143.207 44.021C143.207 43.7521 143.164 43.4917 143.08 43.2409C142.996 42.99 142.873 42.7641 142.712 42.5624C142.552 42.3603 142.351 42.2012 142.111 42.0853C141.871 41.9684 141.593 41.9107 141.277 41.9107C140.965 41.9107 140.69 41.9689 140.45 42.0853C140.21 42.2016 140.01 42.3607 139.849 42.5624C139.688 42.7641 139.565 42.99 139.481 43.2409C139.397 43.4917 139.354 43.7521 139.354 44.021C139.354 44.3831 139.428 44.7258 139.576 45.049C139.723 45.3723 139.94 45.6361 140.225 45.8404C140.509 46.0447 140.86 46.1469 141.276 46.1469Z" fill="#496362"/>
<path d="M149.306 46.9767C148.82 46.9767 148.399 46.8944 148.044 46.7284C147.687 46.5629 147.391 46.3396 147.154 46.0573C146.917 45.7758 146.74 45.4599 146.624 45.1107C146.508 44.7616 146.45 44.4034 146.45 44.0366C146.45 43.6689 146.508 43.3094 146.624 42.9582C146.74 42.6064 146.918 42.2896 147.158 42.0077C147.398 41.7258 147.698 41.5004 148.06 41.3327C148.421 41.1646 148.844 41.0806 149.33 41.0806C149.709 41.0806 150.034 41.1271 150.303 41.2202C150.572 41.3133 150.798 41.4336 150.983 41.581C151.168 41.7284 151.315 41.8849 151.426 42.0504C151.537 42.2159 151.621 42.3737 151.679 42.5237C151.737 42.6741 151.787 42.8418 151.829 43.028H150.904C150.862 42.8732 150.811 42.7401 150.75 42.6284C150.689 42.5172 150.601 42.4047 150.485 42.2909C150.368 42.1771 150.217 42.0832 150.03 42.0082C149.843 41.9332 149.612 41.8952 149.338 41.8952C149.011 41.8952 148.725 41.9564 148.479 42.078C148.234 42.1991 148.031 42.3607 147.87 42.5629C147.709 42.7646 147.589 42.9922 147.51 43.2457C147.431 43.4991 147.392 43.7577 147.392 44.0215C147.392 44.2905 147.432 44.5525 147.514 44.809C147.596 45.065 147.717 45.2952 147.878 45.4995C148.038 45.7043 148.239 45.8655 148.479 45.9844C148.719 46.1034 149 46.1629 149.321 46.1629C149.823 46.1629 150.221 46.0232 150.516 45.7439C150.812 45.4646 150.975 45.087 151.006 44.6112H149.337V43.8819H151.9V44.2931C151.9 44.8827 151.786 45.3767 151.556 45.775C151.327 46.1737 151.016 46.4732 150.623 46.675C150.23 46.8763 149.791 46.9767 149.306 46.9767Z" fill="#496362"/>
<path d="M154.368 46.8996V41.1582H158.189V41.9496H155.293V43.5871H157.825V44.3703H155.293V46.1082H158.229V46.8996H154.368Z" fill="#496362"/>
<path d="M162.39 46.8995V41.9491H160.57V41.1577H165.126V41.9491H163.307V46.8991H162.39V46.8995Z" fill="#496362"/>
<path d="M167.571 46.8996V41.1582H168.496V43.5789H171.115V41.1582H172.04V46.8996H171.115V44.3858H168.496V46.8996H167.571Z" fill="#496362"/>
<path d="M174.747 46.8996V41.1582H178.567V41.9496H175.672V43.5871H178.204V44.3703H175.672V46.1082H178.607V46.8996H174.747Z" fill="#496362"/>
<path d="M181.21 46.8996V41.1582H183.385C183.801 41.1582 184.153 41.2375 184.441 41.3948C184.728 41.5526 184.946 41.7599 185.093 42.0155C185.241 42.2711 185.315 42.5496 185.315 42.8496C185.315 43.2121 185.211 43.5405 185.003 43.8349C184.794 44.1302 184.49 44.3367 184.089 44.4556L185.497 46.8996H184.461L183.132 44.5565H182.135V46.8996H181.21ZM183.369 41.9492H182.135V43.7957H183.369C183.702 43.7957 183.952 43.7013 184.121 43.5125C184.29 43.3237 184.374 43.1104 184.374 42.8729C184.374 42.6354 184.29 42.4216 184.121 42.2328C183.952 42.044 183.702 41.9492 183.369 41.9492Z" fill="#496362"/>
<path d="M84.419 9.52002H81.3342C81.0917 9.52002 80.8948 9.71269 80.8948 9.95105V18.8773C80.7493 18.7071 80.5893 18.5347 80.4148 18.3592C79.9248 17.8679 79.2814 17.4364 78.5018 17.0769C77.7098 16.711 76.7293 16.5256 75.5871 16.5256C74.2239 16.5256 73.0087 16.7937 71.9741 17.323C70.9466 17.8502 70.0782 18.5657 69.3922 19.4511C68.7145 20.3269 68.1994 21.3209 67.861 22.4041C67.5248 23.4812 67.3547 24.595 67.3547 25.7153C67.3547 26.836 67.5253 27.9498 67.861 29.0256C68.1994 30.1097 68.7145 31.1032 69.3922 31.9786C70.0778 32.8648 70.9466 33.5804 71.9741 34.1067C73.0082 34.636 74.2234 34.9041 75.5867 34.9041C76.7254 34.9041 77.7046 34.7252 78.4965 34.3722C79.2801 34.0217 79.9266 33.5877 80.4179 33.0834C80.5906 32.9058 80.7497 32.7312 80.8943 32.5601V34.1549C80.8943 34.3933 81.0912 34.586 81.3338 34.586H84.4185C84.6611 34.586 84.858 34.3933 84.858 34.1549V9.95105C84.8585 9.71269 84.662 9.52002 84.419 9.52002ZM80.8302 25.7144C80.8302 26.6743 80.6491 27.6118 80.2922 28.5023C79.9437 29.3713 79.4098 30.0933 78.7053 30.6485C78.0109 31.1955 77.1609 31.461 76.1066 31.461C75.0514 31.461 74.1953 31.1946 73.4895 30.6463C72.7749 30.0911 72.2361 29.37 71.8884 28.5019C71.5316 27.6127 71.3505 26.6748 71.3505 25.714C71.3505 24.7334 71.5311 23.7903 71.8876 22.9114C72.2352 22.0532 72.774 21.3364 73.489 20.7812C74.1953 20.2334 75.0514 19.9666 76.1062 19.9666C77.1447 19.9666 78.0192 20.2403 78.7044 20.7791C79.4093 21.3347 79.9437 22.0523 80.2922 22.9114C80.6495 23.792 80.8302 24.7351 80.8302 25.7144Z" fill="#71B832"/>
<path d="M60.4764 17.8577C59.1509 16.9737 57.5059 16.5254 55.5863 16.5254C53.6662 16.5254 52.0207 16.9737 50.6957 17.8581C49.3812 18.7366 48.37 19.8866 47.6896 21.2767C47.0142 22.6556 46.6722 24.1487 46.6722 25.7146C46.6722 27.2581 47.0142 28.7456 47.6892 30.1353C48.37 31.537 49.3817 32.6931 50.6957 33.5702C52.0194 34.4547 53.6649 34.903 55.5863 34.903C57.5073 34.903 59.1527 34.4547 60.4764 33.5702C61.7909 32.6922 62.8026 31.5366 63.4829 30.1353C64.158 28.7456 64.4999 27.2581 64.4999 25.7146C64.4999 24.1487 64.1575 22.6556 63.4825 21.2767C62.8026 19.8875 61.7913 18.7375 60.4764 17.8577ZM58.2601 30.6081C57.5516 31.1319 56.652 31.3969 55.5863 31.3969C54.5399 31.3969 53.6451 31.131 52.9261 30.6064C52.193 30.0724 51.6349 29.3668 51.267 28.509C50.8913 27.6327 50.7005 26.6922 50.7005 25.7146C50.7005 24.7159 50.8908 23.7706 51.2662 22.9056C51.6336 22.0577 52.1921 21.3564 52.9256 20.8215C53.6455 20.2969 54.5407 20.031 55.5858 20.031C56.6507 20.031 57.5508 20.2965 58.2596 20.8198C58.9835 21.3551 59.5372 22.0569 59.9055 22.9056C60.2808 23.7715 60.4711 24.7163 60.4711 25.7146C60.4711 26.6918 60.2804 27.6319 59.9046 28.509C59.5372 29.3676 58.9835 30.0737 58.2601 30.6081Z" fill="#71B832"/>
<path d="M103.937 20.6836C103.253 19.3194 102.301 18.2732 101.106 17.5737C99.9147 16.8784 98.5282 16.5254 96.9843 16.5254C95.537 16.5254 94.2639 16.7926 93.1985 17.3202C92.1372 17.8469 91.2451 18.5685 90.5472 19.4659C89.8572 20.3534 89.3412 21.3534 89.0138 22.4392C88.6895 23.5146 88.5251 24.6163 88.5251 25.7146C88.5251 26.8362 88.6956 27.9448 89.0318 29.0099C89.3707 30.0849 89.8914 31.0784 90.5792 31.9629C91.278 32.862 92.182 33.5844 93.2667 34.1099C94.3522 34.6362 95.6465 34.903 97.1143 34.903C98.4253 34.903 99.5456 34.7025 100.444 34.3077C101.334 33.9163 102.078 33.425 102.656 32.8469C103.226 32.2763 103.666 31.7004 103.965 31.1353C104.26 30.5797 104.522 29.9099 104.745 29.1448C104.782 29.0146 104.756 28.875 104.673 28.7668C104.59 28.659 104.46 28.5956 104.322 28.5956H101.433C101.254 28.5956 101.093 28.7017 101.026 28.8642C100.806 29.3931 100.545 29.8366 100.25 30.184C99.9648 30.5206 99.5667 30.8224 99.0674 31.0814C98.5827 31.3336 97.9256 31.4616 97.1143 31.4616C96.1897 31.4616 95.3867 31.2448 94.7271 30.8168C94.0599 30.3844 93.5374 29.7987 93.1735 29.0741C92.8654 28.4625 92.6615 27.79 92.5661 27.0698H104.517C104.76 27.0698 104.956 26.8771 104.956 26.6388V25.7465C104.956 23.7344 104.614 22.0314 103.937 20.6836ZM92.6167 23.85C92.8105 22.7323 93.2588 21.8185 93.9527 21.1288C94.7398 20.3474 95.7313 19.9672 96.9838 19.9672C97.6672 19.9672 98.3203 20.1224 98.9255 20.4293C99.5205 20.7301 100.019 21.1969 100.409 21.8159C100.741 22.3456 100.948 23.0284 101.028 23.85H92.6167Z" fill="#71B832"/>
<path d="M184.61 19.8911C184.11 18.867 183.374 18.042 182.422 17.439C181.465 16.833 180.304 16.5256 178.969 16.5256C177.883 16.5256 176.962 16.7192 176.23 17.1015C175.507 17.4799 174.941 17.92 174.549 18.4105C174.488 18.486 174.43 18.5588 174.376 18.6291V9.95105C174.376 9.71269 174.179 9.52002 173.936 9.52002H170.852C170.609 9.52002 170.412 9.71269 170.412 9.95105V34.1532C170.412 34.3916 170.609 34.5842 170.852 34.5842H173.936C174.179 34.5842 174.376 34.3916 174.376 34.1532V24.6317C174.376 23.817 174.514 23.0368 174.787 22.3127C175.05 21.6161 175.457 21.0463 175.998 20.62C176.521 20.208 177.226 19.9989 178.093 19.9989C179.179 19.9989 179.977 20.3131 180.533 20.9601C181.108 21.6299 181.387 22.4558 181.387 23.4847V34.1528C181.387 34.3911 181.584 34.5838 181.827 34.5838H184.912C185.155 34.5838 185.351 34.3911 185.351 34.1528V23.2942C185.35 22.0459 185.101 20.9011 184.61 19.8911Z" fill="#F08128"/>
<path d="M166.403 31.2107C165.566 31.3344 164.911 31.3973 164.455 31.3973C163.656 31.3973 163.051 31.2335 162.66 30.9098C162.284 30.6003 162.102 30.0986 162.102 29.3766V20.1904H165.851C166.094 20.1904 166.29 19.9977 166.29 19.7594V17.2758C166.29 17.0374 166.094 16.8447 165.851 16.8447H162.102V13.0404C162.102 12.802 161.906 12.6094 161.663 12.6094H158.578C158.335 12.6094 158.138 12.802 158.138 13.0404V16.8447H155.493C155.25 16.8447 155.054 17.0374 155.054 17.2758V19.7594C155.054 19.9977 155.25 20.1904 155.493 20.1904H158.138V29.377C158.138 31.1008 158.635 32.4667 159.612 33.4374C160.592 34.4098 162.046 34.9029 163.935 34.9029C164.649 34.9029 165.527 34.815 166.543 34.6417C166.754 34.6055 166.907 34.4266 166.907 34.2171V31.6378C166.907 31.5124 166.852 31.393 166.754 31.3111C166.658 31.2283 166.528 31.193 166.403 31.2107Z" fill="#F08128"/>
<path d="M131.564 10.1567H127.375C127.208 10.1567 127.055 10.2498 126.982 10.3973L120.329 23.627L113.645 10.3964C113.571 10.2498 113.418 10.1567 113.251 10.1567H109.063C108.82 10.1567 108.624 10.3494 108.624 10.5878V34.1533C108.624 34.3917 108.82 34.5843 109.063 34.5843H112.18C112.423 34.5843 112.62 34.3917 112.62 34.1533V16.9356L118.411 28.2955C118.486 28.4417 118.638 28.5339 118.804 28.5339H121.824C121.99 28.5339 122.142 28.4421 122.217 28.2964L128.008 16.9912V34.1529C128.008 34.3912 128.205 34.5839 128.448 34.5839H131.565C131.808 34.5839 132.004 34.3912 132.004 34.1529V10.5878C132.003 10.3498 131.807 10.1567 131.564 10.1567Z" fill="#F08128"/>
<path d="M152.734 16.8444H149.649C149.406 16.8444 149.209 17.037 149.209 17.2754V18.8771C149.064 18.7073 148.904 18.5344 148.729 18.359C148.24 17.8676 147.596 17.4362 146.816 17.0767C146.024 16.7107 145.044 16.5254 143.901 16.5254C142.538 16.5254 141.323 16.7935 140.288 17.3228C139.26 17.85 138.392 18.5659 137.706 19.4508C137.029 20.3258 136.514 21.3198 136.176 22.4038C135.839 23.4801 135.669 24.5939 135.669 25.715C135.669 26.8366 135.84 27.95 136.176 29.0254C136.514 30.1103 137.03 31.1038 137.706 31.9784C138.392 32.8642 139.26 33.5801 140.288 34.1064C141.323 34.6357 142.538 34.9038 143.901 34.9038C145.04 34.9038 146.019 34.725 146.811 34.3719C147.595 34.0211 148.242 33.5875 148.732 33.0831C148.905 32.9056 149.064 32.731 149.209 32.5594V34.1547C149.209 34.3931 149.405 34.5857 149.648 34.5857H152.733C152.976 34.5857 153.173 34.3931 153.173 34.1547V17.2754C153.173 17.037 152.977 16.8444 152.734 16.8444ZM149.144 25.7142C149.144 26.6741 148.963 27.6116 148.606 28.5021C148.258 29.3711 147.724 30.0926 147.02 30.6482C146.325 31.1952 145.475 31.4607 144.421 31.4607C143.366 31.4607 142.51 31.1944 141.804 30.6461C141.09 30.0909 140.551 29.3694 140.203 28.5017C139.847 27.6125 139.666 26.6745 139.666 25.7138C139.666 24.7331 139.846 23.79 140.203 22.9112C140.551 22.053 141.089 21.3366 141.804 20.781C142.501 20.2405 143.382 19.9663 144.421 19.9663C145.46 19.9663 146.334 20.24 147.019 20.7788C147.724 21.3344 148.258 22.0521 148.607 22.9112C148.964 23.7918 149.144 24.7349 149.144 25.7142Z" fill="#F08128"/>
<path d="M43.3923 12.0478C39.3636 7.88405 33.671 5.28491 27.371 5.28491C15.1881 5.28491 5.27643 15.0052 5.27643 26.9534C5.27643 30.4142 6.10925 33.6853 7.58635 36.5897C8.41082 38.2121 9.43657 39.7177 10.632 41.0784C10.9141 41.3991 11.2046 41.7138 11.5057 42.0181C10.9493 42.6103 10.185 43.0099 9.32406 43.0978C9.20365 43.1108 9.08103 43.1172 8.9571 43.1172C7.91376 43.1172 6.98074 42.6642 6.34481 41.9496C6.20417 41.7603 6.06618 41.5694 5.93082 41.3767C3.05044 37.2715 1.36151 32.3022 1.36151 26.9534C1.36151 12.8875 13.0293 1.44482 27.371 1.44482C34.7644 1.44482 41.4481 4.4862 46.1879 9.36077L43.3923 12.0478ZM49.0643 39.8978L45.7352 38.9862C45.2347 39.7181 44.6888 40.4181 44.1039 41.0845C43.7571 41.4793 43.3963 41.8629 43.0214 42.2319C43.6244 42.8884 44.4827 43.3125 45.4439 43.3543C45.4957 43.3565 45.5462 43.3621 45.5985 43.3621C46.6305 43.3621 47.5547 42.9177 48.1902 42.2155C48.3203 42.0453 48.449 41.8733 48.5752 41.6991C48.9606 41.1685 49.3289 40.625 49.673 40.0638L49.0643 39.8978Z" fill="url(#paint0_linear_3007_13115)"/>
<path d="M45.5981 43.3623C45.5458 43.3623 45.4957 43.3567 45.4434 43.3545C44.4818 43.3123 43.6235 42.8886 43.021 42.2321C42.7177 41.9002 42.4795 41.5119 42.3266 41.0834C42.2629 40.9058 42.2145 40.7218 42.1811 40.5334L42.1446 40.3946L39.1966 29.1856C39.1707 29.0403 39.1333 28.8994 39.0858 28.7627C38.6916 27.6317 37.6013 26.8166 36.314 26.8166C35.1511 26.8166 34.1496 27.483 33.6762 28.4459C33.605 28.5903 33.5448 28.7412 33.4991 28.8994L27.4334 44.4209L20.8108 28.7834C20.7396 28.5028 20.6262 28.2377 20.4772 27.9968C19.9639 27.1636 19.0344 26.605 17.97 26.605C16.7702 26.605 15.7405 27.3127 15.2869 28.3239C15.1507 28.63 15.0685 28.9614 15.0479 29.3102L12.3552 40.4071H12.3543C12.2246 41.0218 11.9236 41.5739 11.5056 42.0183C10.9493 42.6106 10.185 43.0102 9.32404 43.0981C9.20362 43.111 9.08101 43.1175 8.95707 43.1175C7.91374 43.1175 6.98072 42.6645 6.34479 41.9498C7.43866 43.4214 8.68899 44.7731 10.0716 45.9839C10.3252 46.2058 10.5818 46.4252 10.8438 46.6377C10.8631 46.6537 10.8838 46.6675 10.904 46.6839C11.4331 47.0045 12.0541 47.1929 12.7217 47.1929C14.0458 47.1929 15.1964 46.4645 15.7805 45.3942C15.8345 45.2959 15.8829 45.1938 15.9268 45.0908L16.1791 44.0153L18.5541 33.8826L25.0479 48.5041C25.8117 48.5817 26.5865 48.6235 27.371 48.6235C28.1827 48.6235 28.9848 48.5787 29.7745 48.4942L36.0868 33.8826L38.5686 44.2274L38.7312 44.9041C38.7918 45.0765 38.8635 45.2433 38.95 45.4002C39.5359 46.4675 40.6842 47.1925 42.0062 47.1925C42.6654 47.1925 43.2785 47.0084 43.8028 46.6964C43.8243 46.6839 43.8459 46.6718 43.867 46.6589C44.1148 46.4584 44.3592 46.2541 44.5991 46.0451C45.9251 44.8933 47.1266 43.6071 48.1902 42.2149C47.5542 42.9175 46.63 43.3623 45.5981 43.3623Z" fill="url(#paint1_linear_3007_13115)"/>
<path d="M37.2295 13.3557L31.6972 7.54621L22.5551 7.90613L22.5375 7.47509L31.8809 7.10742L37.5507 13.0622L37.2295 13.3557Z" fill="#106C76"/>
<path d="M43.0772 28.2337L36.2186 23.3708L29.851 23.3816L23.8107 26.7945L23.776 26.6488L15.2338 24.2738L9.24756 20.7423L9.57102 20.5936L15.8587 12.3648L22.5657 7.60656L27.6579 10.8721L31.6555 7.2876L33.024 12.1604L28.1141 17.6057L32.1881 19.4104L37.3608 13.0229L41.5012 16.5471L40.6952 22.3173L43.0772 28.2337ZM36.3606 22.9398L42.1161 27.0208L40.2439 22.3699L41.0332 16.7195L37.4193 13.6432L32.3195 19.9415L27.3903 17.7583L32.5375 12.0505L31.423 8.0807L27.7036 11.416L22.5784 8.12941L16.1435 12.6949L10.4161 20.2053L15.1643 18.0234L22.5714 19.6479L24.1047 26.1311L29.7327 22.9505L36.3606 22.9398ZM15.4355 23.8898L23.6626 26.1695L22.2057 20.0091L15.2149 18.4764L10.1806 20.7893L15.4355 23.8898Z" fill="#106C76"/>
<path d="M25.1503 14.457H19.5363V14.8881H25.1503V14.457Z" fill="#106C76"/>
<path d="M15.8513 14.1569C16.7474 14.1569 17.4738 13.4444 17.4738 12.5655C17.4738 11.6866 16.7474 10.9741 15.8513 10.9741C14.9551 10.9741 14.2287 11.6866 14.2287 12.5655C14.2287 13.4444 14.9551 14.1569 15.8513 14.1569Z" fill="#FE6200"/>
<path d="M19.0423 16.2103C19.9081 16.2103 20.6099 15.5219 20.6099 14.6728C20.6099 13.8236 19.9081 13.1353 19.0423 13.1353C18.1765 13.1353 17.4747 13.8236 17.4747 14.6728C17.4747 15.5219 18.1765 16.2103 19.0423 16.2103Z" fill="#8ABE21"/>
<path d="M25.1503 15.8345C25.8044 15.8345 26.3347 15.3144 26.3347 14.6729C26.3347 14.0313 25.8044 13.5112 25.1503 13.5112C24.4962 13.5112 23.9659 14.0313 23.9659 14.6729C23.9659 15.3144 24.4962 15.8345 25.1503 15.8345Z" fill="#D8DC30"/>
<path fill-rule="evenodd" clip-rule="evenodd" d="M29.506 17.8306C29.368 18.8194 28.4389 19.5099 27.4316 19.3746C26.4234 19.2401 25.7185 18.3289 25.8565 17.3397C25.9945 16.3522 26.9236 15.6604 27.9317 15.7957C28.939 15.9306 29.644 16.8431 29.506 17.8306Z" fill="#39B9CF"/>
<path fill-rule="evenodd" clip-rule="evenodd" d="M33.8828 19.7423C33.7923 20.3902 33.1836 20.8432 32.5239 20.7553C31.8643 20.6656 31.4024 20.0686 31.4929 19.4221C31.5834 18.7742 32.1917 18.3221 32.8518 18.4104C33.511 18.4984 33.9733 19.0958 33.8828 19.7423Z" fill="#017684"/>
<path d="M32.6602 13.2087C33.2415 13.2087 33.7127 12.7465 33.7127 12.1764C33.7127 11.6062 33.2415 11.144 32.6602 11.144C32.0789 11.144 31.6076 11.6062 31.6076 12.1764C31.6076 12.7465 32.0789 13.2087 32.6602 13.2087Z" fill="#EB640E"/>
<path d="M27.4883 12.5509C28.3968 12.5509 29.1333 11.8286 29.1333 10.9376C29.1333 10.0465 28.3968 9.32422 27.4883 9.32422C26.5798 9.32422 25.8433 10.0465 25.8433 10.9376C25.8433 11.8286 26.5798 12.5509 27.4883 12.5509Z" fill="#A0C203"/>
<path fill-rule="evenodd" clip-rule="evenodd" d="M32.8377 7.59166C32.7582 8.15934 32.2242 8.55761 31.645 8.48046C31.0662 8.40158 30.661 7.8783 30.7405 7.30977C30.82 6.74253 31.3536 6.34468 31.9324 6.42227C32.5116 6.50072 32.9168 7.02485 32.8377 7.59166Z" fill="#F4D700"/>
<path d="M22.5459 8.89446C23.2241 8.89446 23.7738 8.35527 23.7738 7.69015C23.7738 7.02503 23.2241 6.48584 22.5459 6.48584C21.8677 6.48584 21.318 7.02503 21.318 7.69015C21.318 8.35527 21.8677 8.89446 22.5459 8.89446Z" fill="#F9920C"/>
<path d="M15.134 19.3625C15.7578 19.3625 16.2635 18.8665 16.2635 18.2547C16.2635 17.6429 15.7578 17.147 15.134 17.147C14.5102 17.147 14.0045 17.6429 14.0045 18.2547C14.0045 18.8665 14.5102 19.3625 15.134 19.3625Z" fill="#26BFCE"/>
<path fill-rule="evenodd" clip-rule="evenodd" d="M12.6052 20.6074C12.4527 21.6962 11.4296 22.4579 10.3173 22.3074C9.20626 22.1583 8.4297 21.1549 8.58176 20.0661C8.73338 18.9764 9.75781 18.2139 10.8693 18.3622C11.9803 18.5122 12.7564 19.5174 12.6052 20.6074Z" fill="#F4E039"/>
<path d="M15.345 25.8701C16.2962 25.8701 17.0673 25.1139 17.0673 24.1809C17.0673 23.248 16.2962 22.4917 15.345 22.4917C14.3937 22.4917 13.6226 23.248 13.6226 24.1809C13.6226 25.1139 14.3937 25.8701 15.345 25.8701Z" fill="#106C76"/>
<path d="M22.2264 21.8679C23.2922 21.8679 24.1562 21.0205 24.1562 19.9752C24.1562 18.9299 23.2922 18.0825 22.2264 18.0825C21.1606 18.0825 20.2966 18.9299 20.2966 19.9752C20.2966 21.0205 21.1606 21.8679 22.2264 21.8679Z" fill="#F39D00"/>
<path fill-rule="evenodd" clip-rule="evenodd" d="M25.3252 26.2785C25.4236 25.5707 24.9182 24.9168 24.1953 24.8194C23.4728 24.7216 22.8065 25.219 22.7076 25.9267C22.6083 26.6358 23.1142 27.2897 23.8367 27.3875C24.5596 27.4832 25.2254 26.9879 25.3252 26.2785Z" fill="#8ABE21"/>
<path fill-rule="evenodd" clip-rule="evenodd" d="M30.7295 23.3998C30.6473 23.9881 30.094 24.3989 29.4937 24.3187C28.8938 24.2377 28.4741 23.6959 28.5562 23.1067C28.6384 22.5196 29.1913 22.1075 29.7916 22.1877C30.3915 22.2687 30.8117 22.811 30.7295 23.3998Z" fill="#9FC404"/>
<path d="M36.2894 24.7602C37.1372 24.7602 37.8245 24.0861 37.8245 23.2546C37.8245 22.4231 37.1372 21.749 36.2894 21.749C35.4416 21.749 34.7543 22.4231 34.7543 23.2546C34.7543 24.0861 35.4416 24.7602 36.2894 24.7602Z" fill="#FBDE00"/>
<path d="M42.5964 28.3771C43.1292 28.3771 43.5611 27.9535 43.5611 27.431C43.5611 26.9085 43.1292 26.4849 42.5964 26.4849C42.0637 26.4849 41.6318 26.9085 41.6318 27.431C41.6318 27.9535 42.0637 28.3771 42.5964 28.3771Z" fill="#E06627"/>
<path d="M40.4271 23.2531C40.9599 23.2531 41.3918 22.8295 41.3918 22.307C41.3918 21.7844 40.9599 21.3608 40.4271 21.3608C39.8944 21.3608 39.4625 21.7844 39.4625 22.307C39.4625 22.8295 39.8944 23.2531 40.4271 23.2531Z" fill="#D8DC30"/>
<path fill-rule="evenodd" clip-rule="evenodd" d="M38.4446 13.3892C38.3659 13.9534 37.8351 14.3482 37.2593 14.2707C36.6836 14.1931 36.2802 13.6732 36.3593 13.1086C36.4384 12.5426 36.9693 12.1478 37.545 12.225C38.1207 12.3025 38.5237 12.8232 38.4446 13.3892Z" fill="#3DBECA"/>
<path fill-rule="evenodd" clip-rule="evenodd" d="M39.7148 16.337C39.6062 17.1142 40.16 17.8306 40.9519 17.937C41.7439 18.0426 42.4743 17.5 42.5828 16.7224C42.6914 15.9465 42.1368 15.2301 41.3452 15.1237C40.5529 15.0172 39.8233 15.5607 39.7148 16.337Z" fill="#95C510"/>
<defs>
<linearGradient id="paint0_linear_3007_13115" x1="15.5729" y1="4.69969" x2="36.1786" y2="47.5619" gradientUnits="userSpaceOnUse">
<stop stop-color="#74BB2D"/>
<stop offset="1" stop-color="#4F872D"/>
</linearGradient>
<linearGradient id="paint1_linear_3007_13115" x1="26.3473" y1="27.4539" x2="27.622" y2="48.521" gradientUnits="userSpaceOnUse">
<stop stop-color="#F28824"/>
<stop offset="1" stop-color="#E85329"/>
</linearGradient>
</defs>
</svg>
